<svg xmlns="http://www.w3.org/2000/svg" version="1.0" width="200.000000pt" height="200.000000pt" viewBox="0 0 200.000000 200.000000" preserveAspectRatio="xMidYMid meet">

<g transform="translate(0.000000,200.000000) scale(0.100000,-0.100000)" fill="#e0d0d0" stroke="none">
<path d="M719 1724 c-97 -255 -128 -462 -80 -553 31 -60 93 -123 205 -211 113 -89 123 -109 138 -265 11 -124 5 -426 -10 -466 -10 -24 -16 -26 -91 -33 -44 -3 -91 -10 -103 -15 -23 -9 -23 -9 7 -22 34 -14 355 -19 418 -6 74 16 36 34 -97 46 -66 6 -70 7 -79 36 -5 17 -9 143 -9 280 0 328 4 342 137 443 95 71 174 153 203 207 22 42 26 62 26 130 -1 101 -42 271 -99 413 -31 75 -26 39 6 -49 80 -219 102 -405 59 -489 -33 -65 -130 -154 -212 -195 -60 -30 -81 -35 -138 -35 -57 0 -78 5 -138 35 -82 41 -179 130 -212 195 -43 84 -22 263 59 490 16 46 28 86 26 89 -3 2 -9 -9 -16 -25z" fill="#e0d0d0"/>
<path d="M1225 1409 c-70 -11 -127 -34 -227 -91 -128 -73 -195 -76 -287 -13 -28 19 -53 35 -56 35 -15 0 -2 -110 19 -155 43 -93 188 -203 289 -218 87 -13 204 41 294 136 67 71 88 127 79 216 -10 110 -7 108 -111 90z" fill="#e0d0d0"/>
</g>
</svg>